<?xml version="1.0" encoding="UTF-8" standalone="no"?>
<!-- Generator: Adobe Illustrator 19.0.0, SVG Export Plug-In . SVG Version: 6.00 Build 0)  -->

<svg
   xmlns:dc="http://purl.org/dc/elements/1.1/"
   xmlns:cc="http://creativecommons.org/ns#"
   xmlns:rdf="http://www.w3.org/1999/02/22-rdf-syntax-ns#"
   xmlns:svg="http://www.w3.org/2000/svg"
   xmlns="http://www.w3.org/2000/svg"
   xmlns:sodipodi="http://sodipodi.sourceforge.net/DTD/sodipodi-0.dtd"
   xmlns:inkscape="http://www.inkscape.org/namespaces/inkscape"
   version="1.1"
   id="Capa_1"
   x="0px"
   y="0px"
   viewBox="0 0 511.998 511.998"
   style="enable-background:new 0 0 511.998 511.998;"
   xml:space="preserve"
   sodipodi:docname="duplex.svg"
   inkscape:version="0.92.1 r15371"><metadata
   id="metadata931"><rdf:RDF><cc:Work
       rdf:about=""><dc:format>image/svg+xml</dc:format><dc:type
         rdf:resource="http://purl.org/dc/dcmitype/StillImage" /></cc:Work></rdf:RDF></metadata><defs
   id="defs929" /><sodipodi:namedview
   pagecolor="#ffffff"
   bordercolor="#666666"
   borderopacity="1"
   objecttolerance="10"
   gridtolerance="10"
   guidetolerance="10"
   inkscape:pageopacity="0"
   inkscape:pageshadow="2"
   inkscape:window-width="1920"
   inkscape:window-height="1027"
   id="namedview927"
   showgrid="false"
   inkscape:zoom="0.92187863"
   inkscape:cx="566.06145"
   inkscape:cy="278.5199"
   inkscape:window-x="-8"
   inkscape:window-y="-8"
   inkscape:window-maximized="1"
   inkscape:current-layer="Capa_1" />
<g
   id="g864"
   style="fill:#ffffff">
	<g
   id="g862"
   style="fill:#ffffff">
		<path
   d="M406.46,278.453v194.805H105.546V278.453H71.862v211.652c0,9.302,7.54,16.842,16.842,16.842h334.598    c9.302,0,16.842-7.54,16.842-16.848V278.453H406.46z"
   id="path860"
   style="fill:#ffffff" />
	</g>
</g>
<g
   id="g870"
   style="fill:#ffffff">
	<g
   id="g868"
   style="fill:#ffffff">
		<path
   d="M504.789,312.917L265.628,146.182c-5.777-4.036-13.474-4.036-19.262,0L7.211,312.917    c-7.629,5.322-9.504,15.82-4.182,23.45c5.316,7.618,15.815,9.493,23.45,4.182L256,180.534l229.527,160.015    c2.936,2.044,6.293,3.026,9.617,3.026c5.322,0,10.554-2.515,13.827-7.208C514.288,328.732,512.418,318.234,504.789,312.917z"
   id="path866"
   style="fill:#ffffff" />
	</g>
</g>
<g
   id="g876"
   style="fill:#ffffff">
	<g
   id="g874"
   style="fill:#ffffff">
		<path
   d="M305.965,371.084h-99.929c-9.302,0-16.842,7.54-16.842,16.842V490.1h33.684v-85.332h66.245v85.338h33.684v-102.18    C322.806,378.623,315.267,371.084,305.965,371.084z"
   id="path872"
   style="fill:#ffffff" />
	</g>
</g>
<g
   id="g882"
   style="fill:#ffffff">
	<g
   id="g880"
   style="fill:#ffffff">
		<rect
   x="130.809"
   y="98.245"
   width="33.684"
   height="136.981"
   id="rect878"
   style="fill:#ffffff" />
	</g>
</g>
<g
   id="g888"
   style="fill:#ffffff">
	<g
   id="g886"
   style="fill:#ffffff">
		<rect
   x="347.514"
   y="98.245"
   width="33.684"
   height="136.981"
   id="rect884"
   style="fill:#ffffff" />
	</g>
</g>
<g
   id="g894"
   style="fill:#ffffff">
	<g
   id="g892"
   style="fill:#ffffff">
		<path
   d="M420.035,115.872L265.651,8.084c-5.794-4.042-13.496-4.048-19.284,0L91.982,115.872    c-7.629,5.322-9.493,15.826-4.171,23.45c5.328,7.629,15.826,9.488,23.45,4.171L256,42.436l144.74,101.057    c2.942,2.055,6.299,3.037,9.628,3.037c5.316,0,10.549-2.515,13.833-7.208C429.523,131.698,427.659,121.2,420.035,115.872z"
   id="path890"
   style="fill:#ffffff" />
	</g>
</g>
<g
   id="g896">
</g>
<g
   id="g898">
</g>
<g
   id="g900">
</g>
<g
   id="g902">
</g>
<g
   id="g904">
</g>
<g
   id="g906">
</g>
<g
   id="g908">
</g>
<g
   id="g910">
</g>
<g
   id="g912">
</g>
<g
   id="g914">
</g>
<g
   id="g916">
</g>
<g
   id="g918">
</g>
<g
   id="g920">
</g>
<g
   id="g922">
</g>
<g
   id="g924">
</g>
</svg>