<?xml version="1.0" encoding="UTF-8" standalone="no"?>
<!-- Generator: Adobe Illustrator 19.0.0, SVG Export Plug-In . SVG Version: 6.00 Build 0)  -->

<svg
   xmlns:osb="http://www.openswatchbook.org/uri/2009/osb"
   xmlns:dc="http://purl.org/dc/elements/1.1/"
   xmlns:cc="http://creativecommons.org/ns#"
   xmlns:rdf="http://www.w3.org/1999/02/22-rdf-syntax-ns#"
   xmlns:svg="http://www.w3.org/2000/svg"
   xmlns="http://www.w3.org/2000/svg"
   xmlns:sodipodi="http://sodipodi.sourceforge.net/DTD/sodipodi-0.dtd"
   xmlns:inkscape="http://www.inkscape.org/namespaces/inkscape"
   fill="#fff"
   version="1.1"
   id="Capa_1"
   x="0px"
   y="0px"
   viewBox="0 0 412.72 412.72"
   style="enable-background:new 0 0 412.72 412.72;"
   xml:space="preserve"
   sodipodi:docname="no_outside_food.svg"
   inkscape:version="0.92.1 r15371"><metadata
   id="metadata3738"><rdf:RDF><cc:Work
       rdf:about=""><dc:format>image/svg+xml</dc:format><dc:type
         rdf:resource="http://purl.org/dc/dcmitype/StillImage" /><dc:title></dc:title></cc:Work></rdf:RDF></metadata><defs
   id="defs3736"><linearGradient
     id="linearGradient6016"
     osb:paint="solid"><stop
       style="stop-color:#000000;stop-opacity:1;"
       offset="0"
       id="stop6014" /></linearGradient><linearGradient
     id="linearGradient4554"
     osb:paint="solid"><stop
       style="stop-color:#000000;stop-opacity:1;"
       offset="0"
       id="stop4552" /></linearGradient></defs><sodipodi:namedview
   pagecolor="#ffffff"
   bordercolor="#666666"
   borderopacity="1"
   objecttolerance="10"
   gridtolerance="10"
   guidetolerance="10"
   inkscape:pageopacity="0"
   inkscape:pageshadow="2"
   inkscape:window-width="1920"
   inkscape:window-height="1027"
   id="namedview3734"
   showgrid="false"
   inkscape:zoom="1.546658"
   inkscape:cx="25.969009"
   inkscape:cy="197.84803"
   inkscape:window-x="-8"
   inkscape:window-y="-8"
   inkscape:window-maximized="1"
   inkscape:current-layer="Capa_1" />

<g
   id="g3703">
</g>
<g
   id="g3705">
</g>
<g
   id="g3707">
</g>
<g
   id="g3709">
</g>
<g
   id="g3711">
</g>
<g
   id="g3713">
</g>
<g
   id="g3715">
</g>
<g
   id="g3717">
</g>
<g
   id="g3719">
</g>
<g
   id="g3721">
</g>
<g
   id="g3723">
</g>
<g
   id="g3725">
</g>
<g
   id="g3727">
</g>
<g
   id="g3729">
</g>
<g
   id="g3731">
</g>
<ellipse
   id="path3745"
   cx="207.01282"
   cy="207.74083"
   style="fill:none;fill-opacity:1;stroke:#ffffff;stroke-width:19.70000076;stroke-miterlimit:4;stroke-dasharray:none;stroke-opacity:1"
   rx="195.46399"
   ry="196.11053" /><path
   style="fill:none;stroke:#ffffff;stroke-width:17.8;stroke-linecap:butt;stroke-linejoin:miter;stroke-opacity:1;stroke-miterlimit:4;stroke-dasharray:none"
   d="M 67.241755,74.571561 332.976,354.53002"
   id="path6026"
   inkscape:connector-curvature="0" /><g
   id="g4505"
   transform="matrix(0.42164674,0,0,0.43937299,99.602699,86.230692)"
   style="stroke-width:2.32331967"><g
     id="g4503"
     style="stroke-width:2.32331967"><path
       d="M 512,196.051 C 512,133.447 488.995,84.89 432.757,57.942 383.577,34.376 315.921,31.199 256.226,31.199 196.531,31.199 128.874,34.376 79.694,57.942 23.46,84.889 0.452,133.442 0.452,196.053 v 44.96 H 22.584 L 0,293.13 l 13.013,6.386 c 6.481,3.184 11.862,6.93 17.412,11.166 v 50.225 H 0.451 v 14.987 c 0,57.846 47.509,104.907 105.906,104.907 h 300.734 c 57.846,0 104.907,-47.327 104.907,-104.907 v -14.987 h -29.974 v -51.621 c 4.828,-3.467 9.474,-6.445 15.223,-9.074 l 14.569,-6.66 -22.182,-52.54 H 512 Z M 407.093,450.828 H 106.358 c -36.67,0 -67.352,-25.886 -74.407,-60.047 h 448.57 c -6.963,34.16 -37.242,60.047 -73.428,60.047 z m 42.209,-154.63 c -9.528,6.801 -25.624,3.446 -30.815,-4.342 -9.483,-14.223 -25.536,-22.715 -42.943,-22.715 -17.408,0 -33.46,8.492 -42.943,22.715 -8.292,12.437 -26.623,12.577 -35.007,0 -9.483,-14.223 -25.35,-22.715 -42.444,-22.715 -17.094,0 -32.961,8.492 -42.444,22.715 -8.292,12.437 -26.623,12.577 -35.007,0 -9.483,-14.223 -25.35,-22.715 -42.444,-22.715 -17.094,0 -32.961,8.492 -42.443,22.715 -7.087,10.629 -21.962,12.103 -31.309,5.012 -7.88,-5.979 -14.772,-11.85 -22.99,-17.231 l 16.736,-38.623 h 401.848 l 16.096,38.123 c -8.635,5.3 -15.607,11.146 -23.891,17.061 z m 2.751,31.456 v 33.255 H 60.399 v -10e-4 -31.722 c 20.824,5.904 44.4,-1.271 57.354,-20.703 3.969,-5.953 10.349,-9.368 17.504,-9.368 7.156,0 13.535,3.414 17.504,9.368 20.155,30.232 64.681,30.309 84.887,0 3.969,-5.953 10.349,-9.368 17.504,-9.368 7.156,0 13.535,3.414 17.504,9.368 20.154,30.231 64.68,30.31 84.887,0 3.969,-5.953 10.531,-9.368 18.003,-9.368 7.472,0 14.035,3.414 18.003,9.368 11.569,17.358 36.505,25.64 58.504,19.171 z M 482.026,211.04 H 30.425 v -14.987 c 0,-55.442 19.772,-90.739 62.221,-111.08 43.768,-20.972 107.251,-23.801 163.58,-23.801 56.329,0 119.811,2.828 163.579,23.801 42.451,20.341 62.221,55.638 62.221,111.08 z"
       id="path4501"
       inkscape:connector-curvature="0"
       style="stroke-width:2.32331967" /></g></g><g
   id="g4511"
   transform="matrix(0.42164674,0,0,0.43937299,99.602699,86.230692)"
   style="stroke-width:2.32331967"><g
     id="g4509"
     style="stroke-width:2.32331967"><rect
       x="121.343"
       y="151.097"
       width="29.974001"
       height="29.974001"
       id="rect4507"
       style="stroke-width:2.32331967" /></g></g><g
   id="g4517"
   transform="matrix(0.42164674,0,0,0.43937299,99.602699,86.230692)"
   style="stroke-width:2.32331967"><g
     id="g4515"
     style="stroke-width:2.32331967"><rect
       x="241.237"
       y="151.097"
       width="29.974001"
       height="29.974001"
       id="rect4513"
       style="stroke-width:2.32331967" /></g></g><g
   id="g4523"
   transform="matrix(0.42164674,0,0,0.43937299,99.602699,86.230692)"
   style="stroke-width:2.32331967"><g
     id="g4521"
     style="stroke-width:2.32331967"><rect
       x="361.13101"
       y="151.097"
       width="29.974001"
       height="29.974001"
       id="rect4519"
       style="stroke-width:2.32331967" /></g></g><g
   id="g4529"
   transform="matrix(0.42164674,0,0,0.43937299,99.602699,86.230692)"
   style="stroke-width:2.32331967"><g
     id="g4527"
     style="stroke-width:2.32331967"><rect
       x="301.18399"
       y="91.150002"
       width="29.974001"
       height="29.974001"
       id="rect4525"
       style="stroke-width:2.32331967" /></g></g><g
   id="g4535"
   transform="matrix(0.42164674,0,0,0.43937299,99.602699,86.230692)"
   style="stroke-width:2.32331967"><g
     id="g4533"
     style="stroke-width:2.32331967"><rect
       x="181.28999"
       y="91.150002"
       width="29.974001"
       height="29.974001"
       id="rect4531"
       style="stroke-width:2.32331967" /></g></g></svg>