<?xml version="1.0" encoding="iso-8859-1"?>
<!-- Generator: Adobe Illustrator 19.0.0, SVG Export Plug-In . SVG Version: 6.00 Build 0)  -->
<svg version="1.1" id="Capa_1" xmlns="http://www.w3.org/2000/svg" xmlns:xlink="http://www.w3.org/1999/xlink" x="0px" y="0px"
	 viewBox="0 0 480 480" style="enable-background:new 0 0 480 480;" xml:space="preserve">
<g>
	<g>
		<path fill="#fff" d="M407.889,102.68l-8-48c-0.645-3.854-3.98-6.679-7.888-6.68h-25.224l-6.888-41.32c-0.645-3.854-3.98-6.679-7.888-6.68h-224
			c-3.908,0.001-7.243,2.826-7.888,6.68L113.225,48H88.001c-3.908,0.001-7.243,2.826-7.888,6.68l-8,48
			c-0.729,4.358,2.213,8.481,6.57,9.21c0.435,0.073,0.876,0.11,1.318,0.11h16.344l15.656,360.344c0.184,4.283,3.713,7.66,8,7.656
			h240c4.287,0.004,7.816-3.373,8-7.656L383.657,112h16.344c4.418-0.001,7.999-3.584,7.998-8.002
			C407.998,103.556,407.962,103.115,407.889,102.68z M352.305,464h-224.64l-5.6-128h235.84L352.305,464z M358.585,320H121.417
			l-5.6-128h248.352L358.585,320z M364.865,176H115.137l-2.784-64h255.296L364.865,176z M89.449,96l5.328-32h25.224
			c3.908-0.001,7.243-2.826,7.888-6.68L134.777,16h210.448l6.888,41.32c0.645,3.854,3.98,6.679,7.888,6.68h25.224l5.328,32H89.449z"
			/>
	</g>
</g>
<g>
</g>
<g>
</g>
<g>
</g>
<g>
</g>
<g>
</g>
<g>
</g>
<g>
</g>
<g>
</g>
<g>
</g>
<g>
</g>
<g>
</g>
<g>
</g>
<g>
</g>
<g>
</g>
<g>
</g>
</svg>
