<?xml version="1.0" standalone="no"?>
<!DOCTYPE svg PUBLIC "-//W3C//DTD SVG 20010904//EN"
 "http://www.w3.org/TR/2001/REC-SVG-20010904/DTD/svg10.dtd">
<svg version="1.0" xmlns="http://www.w3.org/2000/svg"
 width="595.000000pt" height="108.000000pt" viewBox="0 0 595.000000 108.000000"
 preserveAspectRatio="xMidYMid meet">
<metadata>
Created by potrace 1.15, written by Peter Selinger 2001-2017
</metadata>
<g transform="translate(0.000000,108.000000) scale(0.100000,-0.100000)"
fill="#fff" stroke="none">
<path d="M1182 1048 c-56 -27 -82 -129 -103 -396 -13 -171 -8 -161 -108 -212
-42 -21 -118 -29 -142 -15 -17 11 -39 71 -39 108 0 19 -7 40 -15 47 -9 7 -13
20 -10 30 7 23 -31 69 -71 86 -27 11 -40 11 -81 -1 -68 -20 -120 -69 -162
-151 -56 -107 -136 -150 -232 -124 -93 25 -135 102 -126 229 4 62 11 92 34
132 39 73 71 94 141 94 48 0 57 3 60 19 6 28 -24 46 -74 46 -56 0 -92 -14
-132 -53 -44 -42 -68 -91 -88 -174 -38 -160 22 -299 150 -348 65 -25 161 -18
213 17 l39 26 32 -29 c58 -52 158 -34 238 43 l31 29 21 -35 c33 -56 62 -70
137 -64 43 4 79 14 111 32 25 14 48 26 50 26 2 0 4 -81 4 -179 0 -176 0 -180
22 -187 27 -8 44 13 53 68 12 71 89 135 293 242 52 27 54 27 93 12 53 -21 134
-20 185 3 47 21 57 32 48 55 -8 20 -27 20 -79 1 -39 -14 -105 -20 -105 -10 0
3 27 32 60 64 57 56 60 61 60 108 0 84 -59 133 -135 112 -55 -15 -78 -33 -103
-78 -24 -43 -29 -82 -18 -147 l7 -41 -77 -38 c-43 -21 -110 -60 -150 -87 -39
-26 -75 -48 -78 -48 -3 0 -6 47 -6 105 l0 105 34 37 c127 142 200 347 167 470
-19 71 -85 102 -149 71z m91 -148 c-1 -71 -23 -141 -70 -224 -59 -105 -65
-105 -58 -1 11 160 34 275 62 303 l25 25 21 -22 c18 -17 21 -32 20 -81z m-569
-291 c35 -30 35 -32 21 -60 -58 -112 -202 -179 -221 -104 -14 58 34 142 99
174 55 27 60 27 101 -10z m907 21 c26 -14 24 -47 -6 -86 -28 -36 -92 -80 -103
-69 -4 4 -7 28 -7 55 0 50 20 84 60 101 27 11 33 11 56 -1z"/>
<path d="M2115 926 c-177 -56 -287 -254 -256 -462 13 -88 25 -114 51 -114 25
0 32 26 20 75 -39 165 30 354 151 415 96 49 200 46 220 -7 14 -38 -10 -71
-102 -138 -104 -76 -124 -102 -124 -164 0 -60 29 -98 110 -143 57 -31 66 -33
160 -33 73 0 112 5 143 18 39 16 45 16 74 1 16 -9 63 -18 102 -21 60 -5 80 -2
121 16 28 12 60 32 73 44 16 15 27 18 36 12 65 -48 71 -50 141 -50 76 0 137
23 225 83 l44 31 26 -52 c35 -70 73 -90 165 -84 122 7 202 77 212 186 5 55 8
61 37 74 44 21 79 27 94 18 6 -4 21 -49 32 -100 23 -103 41 -138 77 -147 54
-14 85 7 163 111 41 55 83 101 92 103 20 4 25 -12 32 -118 6 -85 27 -123 71
-128 50 -6 84 18 140 97 104 147 119 153 130 49 11 -114 37 -148 112 -148 74
0 114 41 193 194 19 38 46 75 59 84 22 15 24 15 37 -3 9 -12 14 -45 14 -87 0
-106 30 -158 91 -158 31 0 81 36 110 79 65 99 101 141 118 141 17 0 20 -10 25
-77 12 -142 29 -173 93 -173 42 0 67 22 144 127 78 106 102 116 107 48 8 -135
32 -175 102 -175 33 0 48 6 72 30 25 25 28 33 18 45 -16 19 -35 19 -65 -1 -37
-24 -52 -5 -60 74 -11 121 -44 157 -121 132 -27 -9 -50 -33 -105 -111 -94
-133 -119 -132 -119 4 0 96 -32 147 -94 147 -35 0 -76 -38 -147 -136 -57 -79
-84 -100 -94 -71 -2 6 -8 52 -14 100 -10 95 -29 130 -76 139 -58 12 -105 -33
-168 -157 -86 -169 -157 -179 -170 -24 -5 63 -10 77 -32 97 -55 47 -103 21
-195 -103 -92 -125 -105 -126 -113 -6 -9 136 -41 177 -120 154 -24 -6 -50 -33
-107 -108 -50 -67 -82 -100 -95 -100 -20 0 -20 -2 -50 130 -19 85 -46 117 -98
117 -45 0 -101 -18 -148 -48 -42 -26 -49 -40 -38 -71 32 -87 -83 -186 -192
-168 -69 12 -90 80 -47 154 19 33 20 41 9 55 -7 9 -17 16 -21 16 -3 0 -47 -32
-96 -70 -121 -96 -191 -130 -265 -130 -70 0 -89 15 -89 70 0 30 8 48 30 74 37
42 79 57 146 54 44 -3 49 -1 52 19 7 48 -102 62 -183 23 -52 -25 -88 -67 -110
-130 -29 -84 -94 -129 -185 -132 -33 -1 -62 1 -66 4 -3 4 14 26 39 50 59 57
76 113 50 166 -64 130 -253 50 -253 -107 0 -22 4 -51 9 -64 9 -22 6 -27 -20
-37 -45 -19 -168 -16 -209 5 -115 58 -129 100 -52 164 26 22 67 55 92 73 87
66 112 137 70 206 -11 18 -36 40 -55 48 -42 17 -125 17 -180 0z m526 -296 c39
-22 9 -94 -58 -140 -42 -29 -58 -17 -58 44 0 72 63 124 116 96z"/>
</g>
</svg>
