<?xml version="1.0"?>
<svg xmlns="http://www.w3.org/2000/svg" 
xmlns:xlink="http://www.w3.org/1999/xlink" 
version="1.1" id="Capa_1" x="0px" y="0px" viewBox="0 0 512.519 512.519" 
style="enable-background:new 0 0 512.519 512.519;" xml:space="preserve" 
width="512px" height="512px" class=""><g>
<path style="fill:rgba(128,128,128,.7)" d="M510.579,279.178c-8.529-70.617-40.999-136.178-92-185.76  C309.555-15.542,147.891-31.254,58.227,58.506s-74.048,251.328,34.944,360.32c49.587,50.994,115.146,83.463,185.76,92  c8.834,0.925,17.71,1.395,26.592,1.408c55.193,1.199,108.541-19.887,148-58.496C498.281,407.366,519.308,343.033,510.579,279.178z" data-original="#795548" class="active-path" data-old_color="#C1C1C1"/><path d="M305.331,512.042c-80.155-2.015-156.303-35.474-212-93.152c-108.8-108.8-124.608-270.56-34.912-360.224  s251.232-74.048,360.224,34.912l0,0c108.8,108.96,124.608,270.56,34.912,360.224C413.956,492.306,360.55,513.29,305.331,512.042z   M206.675,32.234C159.913,31.07,114.644,48.746,81.043,81.29c-77.216,77.184-61.536,218.496,34.912,314.976  s237.76,112.16,314.976,34.912s61.536-218.496-34.912-314.976C346.34,64.493,278.352,34.342,206.675,32.234z" data-original="transparent" class=""/><path d="M442.259,458.506c-6.382,0.022-12.167-3.751-14.72-9.6l-23.104-53.952c-27.188-63.489-83.915-109.504-151.648-123.008  c-78.001-15.609-143.32-68.613-174.656-141.728L55.027,76.266c-3.366-8.17,0.529-17.522,8.699-20.888  c8.006-3.298,17.184,0.371,20.709,8.28l23.104,53.952c27.213,63.452,83.936,109.427,151.648,122.912  c78.049,15.571,143.423,68.581,174.784,141.728l23.104,53.952c3.472,8.112-0.279,17.504-8.384,20.992  C446.664,458.081,444.472,458.528,442.259,458.506z" data-original="transparent" class=""/></g> </svg>
